<?xml version="1.0" standalone="no"?>
<!DOCTYPE svg PUBLIC "-//W3C//DTD SVG 1.1//EN" "http://www.w3.org/Graphics/SVG/1.1/DTD/svg11.dtd" >
<svg xmlns="http://www.w3.org/2000/svg">
<metadata>
Created by FontForge 20120731 at Thu Jun  1 00:37:40 2017
 By admin
</metadata>
<defs>
<font id="iconfont" horiz-adv-x="1024" >
  <font-face 
    font-family="iconfont"
    font-weight="500"
    font-stretch="normal"
    units-per-em="1024"
    panose-1="2 0 6 3 0 0 0 0 0 0"
    ascent="896"
    descent="-128"
    x-height="792"
    bbox="0 -212 1325.5 896"
    underline-thickness="0"
    underline-position="0"
    unicode-range="U+0078-E942"
  />
<missing-glyph 
 />
    <glyph glyph-name=".notdef" 
 />
    <glyph glyph-name=".notdef" 
 />
    <glyph glyph-name=".null" horiz-adv-x="0" 
 />
    <glyph glyph-name="nonmarkingreturn" horiz-adv-x="341" 
 />
    <glyph glyph-name="x" unicode="x" horiz-adv-x="1001" 
d="M281 543q-27 -1 -53 -1h-83q-18 0 -36.5 -6t-32.5 -18.5t-23 -32t-9 -45.5v-76h912v41q0 16 -0.5 30t-0.5 18q0 13 -5 29t-17 29.5t-31.5 22.5t-49.5 9h-133v-97h-438v97zM955 310v-52q0 -23 0.5 -52t0.5 -58t-10.5 -47.5t-26 -30t-33 -16t-31.5 -4.5q-14 -1 -29.5 -0.5
t-29.5 0.5h-32l-45 128h-439l-44 -128h-29h-34q-20 0 -45 1q-25 0 -41 9.5t-25.5 23t-13.5 29.5t-4 30v167h911zM163 247q-12 0 -21 -8.5t-9 -21.5t9 -21.5t21 -8.5q13 0 22 8.5t9 21.5t-9 21.5t-22 8.5zM316 123q-8 -26 -14 -48q-5 -19 -10.5 -37t-7.5 -25t-3 -15t1 -14.5
t9.5 -10.5t21.5 -4h37h67h81h80h64h36q23 0 34 12t2 38q-5 13 -9.5 30.5t-9.5 34.5q-5 19 -11 39h-368zM336 498v228q0 11 2.5 23t10 21.5t20.5 15.5t34 6h188q31 0 51.5 -14.5t20.5 -52.5v-227h-327z" />
    <glyph glyph-name="weibo" unicode="&#xe600;" horiz-adv-x="1000" 
d="M408 226q-11 -2 -19 -10t-8 -18t8.5 -15.5t20 -4.5t19.5 9t8 17q0 10 -8 16.5t-21 5.5zM446 322q-62 -3 -104.5 -32.5t-42.5 -69.5q0 -41 43 -68t104 -24t104.5 35.5t43.5 74.5q0 40 -42.5 63.5t-105.5 20.5zM502 185q-20 -26 -53 -33t-70 11q-10 5 -15.5 14.5t-5.5 15.5
l-1 6q1 1 -0.5 8.5t2.5 19.5t10 24t22 22t39 13q29 3 49 -7.5t27 -27.5t6 -35.5t-10 -30.5zM447 236q-9 -6 -4 -15t15 -2q9 8 4 16q-5 9 -15 1zM500 749q-91 0 -173.5 -35.5t-142.5 -95.5t-95.5 -142.5t-35.5 -173.5t35.5 -174t95.5 -142.5t142.5 -95t173.5 -35.5
t173.5 35.5t142.5 95t95.5 142.5t35.5 174t-35.5 173.5t-95.5 142.5t-142.5 95.5t-173.5 35.5zM667 201q-24 -50 -92 -77.5t-135 -21.5q-176 13 -189 126q-1 5 -0.5 13.5t9.5 34.5t27 50q2 4 6.5 9.5t18.5 21.5t28.5 29t35.5 27t40 21q78 26 78 -40q-5 -16 -3.5 -23t19.5 -1
q2 1 7 3t18.5 6t25 5.5t24.5 -1t21 -10.5q10 -10 11 -23.5t-3 -21.5l-4 -9q-9 -10 10 -14q9 -2 20 -7.5t23.5 -18.5t13 -31.5t-9.5 -46.5zM599 399q-5 0 -9 4t-4 9.5t4 9.5t9 4q4 0 9.5 1t19.5 -1.5t24 -9t17 -23.5t4 -42v-1q-2 -11 -13 -11q-6 0 -10 3.5t-4 9.5l1 22
q-6 34 -48 25zM741 336v0q-1 -11 -3 -16.5t-3.5 -6t-6 0.5t-6.5 1q-19 0 -19 16l4 17q8 32 -6 65q-11 17 -27 28.5t-30 14.5t-26.5 5t-13.5 -1l-18 -4q-8 0 -14 5.5t-6 13.5q0 15 15 19v0h2t10 2.5t16 4t19.5 2t21.5 -2.5q21 -4 40.5 -16.5t36.5 -33.5t21 -49t-7 -65z" />
    <glyph glyph-name="qq" unicode="&#xe616;" 
d="M512 812q-104 0 -199 -40.5t-163.5 -109t-109 -163.5t-40.5 -199t40.5 -199t109 -163.5t163.5 -109t199 -40.5t199 40.5t163.5 109t109 163.5t40.5 199t-40.5 199t-109 163.5t-163.5 109t-199 40.5zM794 140q-10 -8 -25.5 0.5t-32.5 31.5q-14 -38 -36 -71q51 -18 51 -47
q0 -25 -39 -43t-94 -18q-66 0 -106 24q-39 -24 -106 -24q-55 0 -93.5 18t-38.5 43q0 29 50 47q-21 32 -36 71q-16 -23 -31.5 -31.5t-25.5 -0.5q-14 13 -9.5 52.5t24.5 81.5q9 20 20 35q3 124 74.5 211t171.5 87v0q101 0 172.5 -87t74.5 -211q10 -15 19 -35
q20 -42 24.5 -81.5t-8.5 -52.5z" />
    <glyph glyph-name="4" unicode="&#xe601;" 
d="M511 752q-92 0 -175.5 -35.5t-143.5 -96t-96 -144t-36 -175.5t36 -175.5t96 -143.5t143.5 -96t175.5 -36t175.5 36t144 96t96 143.5t35.5 175.5t-35.5 175.5t-96 144t-144 96t-175.5 35.5zM375 7v0q-9 0 -15 6t-6 15q-4 163 94 259q-12 21 -10.5 46.5t16.5 45.5
q21 27 53.5 31t58.5 -17t30 -54.5t-16 -60.5q-19 -24 -48 -29.5t-54 9.5q-87 -84 -83 -229q0 -9 -5.5 -15.5t-14.5 -6.5zM517 129q-21 0 -42 5q-8 2 -12.5 9t-3 15.5t9 13.5t15.5 3q16 -3 33 -3q64 0 109 46t45 111t-45 111t-109 46t-109 -46t-45 -111q0 -26 8 -50
q3 -9 -1 -16.5t-12 -10.5t-15.5 1t-10.5 12q-10 31 -10 64q0 82 57 140.5t138 58.5t138 -58.5t57 -141t-57 -141t-138 -58.5z" />
    <glyph glyph-name="qqkongjian" unicode="&#xe65d;" 
d="M512 747q-91 0 -173.5 -35.5t-142.5 -95.5t-95.5 -142.5t-35.5 -173.5t35.5 -173.5t95.5 -142.5t142.5 -95.5t173.5 -35.5t173.5 35.5t142.5 95.5t95.5 142.5t35.5 173.5t-35.5 173.5t-95.5 142.5t-142.5 95.5t-173.5 35.5zM799 360l-127 -117q-9 -8 -7 -18l3 -15
q-116 2 -187 12v3l181 123q7 4 0 5q-5 1 -12.5 2t-13 2l-5.5 1q-57 6 -119 6q-106 0 -190 -18h3h2q141 0 235 -15v-3l-181 -126v0l-4 -3l3 -2q29 -4 59 -6v0q36 -3 73 -3q110 0 195 20l4 1q-12 -9 -40 -19l26 -138q2 -11 -3.5 -15t-15.5 2l-151 85q-15 9 -31 -1l-150 -84
q-10 -6 -15.5 -2t-3.5 15l34 174q2 9 -5 15l-131 119q-9 8 -6.5 14t13.5 8l168 18q9 1 13 3t8 9l79 161q5 10 12 10t12 -10l74 -161q4 -8 7.5 -10.5t13.5 -3.5l173 -16q11 -2 13.5 -8t-6.5 -14v0z" />
    <glyph glyph-name="icon" unicode="&#xe602;" horiz-adv-x="1326" 
d="M489 812q19 0 39 -4t45.5 -11t38.5 -10q2 -1 8 -2.5t9 -2.5q20 -5 70 -15.5t80 -19t71 -23t73.5 -35.5t57.5 -49q28 -31 44.5 -79.5t20 -100t-7.5 -101t-34.5 -85.5t-65 -51.5t-95.5 -1.5q-22 7 -47 19q-3 17 -1.5 72t1.5 71q0 9 1 19q0 7 1 20q1 31 -1 89.5t-2 69.5
q0 6 -2 13q-5 27 -20.5 44.5t-36.5 7.5q-11 -6 -18 -15.5t-8.5 -22.5t-1.5 -24t1 -26.5t1 -23.5q0 -6 1 -14q3 -58 3 -65v-70v-36v-36v-37v-488h-20q-26 19 -103 38t-103 44v846v20q0 35 1 57v19zM1 5q-7 38 38 70l13 9q7 6 12 9q6 4 15 9q63 34 198 76.5t180 61.5v-124
q-5 -4 -11.5 -7.5t-13.5 -6.5q-14 -5 -42 -13.5t-50 -15.5t-42 -14l-14 -6q-4 -2 -19.5 -8t-22 -9t-17 -9t-13.5 -11.5t-1 -11.5q8 -21 45 -23t65 8q8 2 16 5q8 2 16 5q59 22 75 27q8 3 15 5t14 3q-1 -13 0.5 -41.5t0 -49.5t-10.5 -32q-101 -9 -185 -3q-8 0 -16 1l-18 2
l-18 2l-20 2q-1 1 -18 4l-18 4q-45 10 -81 27l-12 6q-8 3 -16.5 9.5t-18 15.5t-14.5 13q-6 5 -11 11zM1324 84q12 -60 -72 -95l-16 -8q-65 -33 -143.5 -61t-183.5 -61t-154 -50v123q47 22 142 52t129 44q8 3 15 6q6 3 13 6q6 3 12.5 6t19 7.5t20 8t18 8.5t18.5 11
q-43 29 -82 23l-14 -2q-8 -1 -17 -2q-6 -1 -18 -4q-8 -1 -17 -3q-34 -9 -114.5 -41t-124.5 -38v133q138 47 302 36q9 0 18 -1q8 -2 33.5 -4.5t39.5 -6.5q12 -4 18 -4l18 -4q26 -7 50 -17q8 -3 16 -7q19 -9 34 -20q6 -3 11 -7q3 -2 19 -18z" />
    <glyph glyph-name="weixin" unicode="&#xe604;" 
d="M356 536q-12 0 -21.5 -7.5t-9.5 -18.5t9.5 -18.5t21.5 -7.5t19 7t7 19t-7 19t-19 7zM571 384q-8 0 -14.5 -6.5t-6.5 -14.5t6.5 -14.5t14.5 -6.5q12 0 19.5 6.5t7.5 14.5t-7.5 14.5t-19.5 6.5zM503 484q12 0 19 7t7 19t-7 19t-19 7t-21.5 -7.5t-9.5 -18.5t9.5 -18.5
t21.5 -7.5zM511 834q-91 0 -174.5 -36t-143.5 -96t-96 -143t-36 -174.5t36 -175t96 -143.5t143.5 -96t174.5 -36t174.5 36t143.5 96t96 143.5t36 175t-36 174.5t-96 143t-143.5 96t-174.5 36zM424 269q-20 0 -73 10l-73 -37l21 63q-84 59 -84 142q0 75 61.5 126.5
t147.5 51.5q78 0 138 -41.5t74 -105.5q-11 1 -20 1q-75 0 -126.5 -48.5t-52.5 -117.5q0 -21 7 -44h-20zM734 195l16 -52l-58 31q-42 -10 -63 -10q-75 0 -126.5 44.5t-51.5 107.5t52 107.5t126 44.5q71 0 124.5 -45t53.5 -107q0 -66 -73 -121zM687 384q-8 0 -14.5 -6.5
t-6.5 -14.5t6.5 -14.5t14.5 -6.5q11 0 18.5 6.5t7.5 14.5t-7.5 14.5t-18.5 6.5z" />
    <glyph glyph-name="zan" unicode="&#xe687;" 
d="M913 394q1 -6 -1 -11l-72 -319q-2 -5 -5 -10q-12 -25 -35 -39q-24 -15 -53 -15v0h-463q-3 -1 -5.5 -1t-4.5 1h-124q-2 -1 -5 -1q-14 0 -23.5 10t-9.5 24v401q0 13 10 23t23 10h4h111v1q77 5 130.5 60.5t55.5 133.5q-1 4 -1 8q0 41 28.5 69t69.5 28q34 0 60.5 -21
t33.5 -54h1q8 -38 8 -76q0 -60 -19 -116h186h5q53 -2 80 -47q17 -26 15 -59zM179 67h66l1 333h-67v-333v0v0zM842 419q-10 16 -29 15v0v0h-236q-13 0 -23 10t-10 24q0 7 4 14l-1 1q20 38 29 80v0q5 18 5 53q0 12 -1.5 25t-2.5 20l-1 7h-1v0.5v1.5q0 13 -9 22t-22 9t-22 -9
t-9 -22v-3v0q0 -26 -5 -53q-3 -15 -8 -30v0q-21 -65 -71 -111.5t-116 -63.5l-1 -342h435h5q7 0 12 4q9 5 12 14h1l69 307v0q4 14 -4 27v0z" />
    <glyph glyph-name="xbox" unicode="&#xe942;" 
d="M274 737q6 5 8 7q103 67 230 67q121 0 219 -61q19 -14 24 -20q-20 19 -49 18.5t-63 -15.5t-63 -33t-49 -33l-19 -14q-99 74 -164 94q-46 11 -72 -9zM825 674l-6 6q-20 23 -51 20q-15 -4 -34.5 -13t-62 -37t-82.5 -66q11 -11 29.5 -30t62 -71.5t71.5 -96.5
q52 -86 71.5 -149.5t4.5 -139.5q52 58 81.5 132t29.5 155q0 83 -30 157t-84 133zM671 343q-60 67 -122 128l-18 18l-19 19l-46 -46q-59 -59 -99 -101q-29 -31 -61.5 -71.5t-68 -99t-39.5 -94.5q-1 3 -2.5 8t-3 23.5t0.5 40.5t11.5 58.5t25.5 76.5q27 65 93 153t110 129
q-44 49 -99 83l-2 1q-48 28 -85 30q-12 -1 -23.5 -7t-17.5 -11l-5 -5q-48 -51 -82 -136.5t-34 -154.5v-1q0 -116 57.5 -214t155.5 -155.5t214 -57.5q92 0 174 37t142 103q-1 6 -4 18t-20 48t-43 72q-23 32 -90 108z" />
    <glyph glyph-name="fenxiang" unicode="&#xe657;" 
d="M679 265q-54 0 -84 -36l-220 120q12 24 12 52q0 32 -12 56l208 136q15 -24 42.5 -40t57.5 -16q51 0 87.5 37.5t36.5 90.5q0 52 -37 90t-87 38q-52 0 -88 -37t-36 -91v-12l-228 -148q-40 24 -68 24q-52 0 -88 -37t-36 -91q0 -51 36.5 -89.5t87.5 -38.5q42 0 72 24
l228 -124q-4 -12 -4 -36q0 -51 36.5 -89.5t87.5 -38.5t87.5 37.5t36.5 90.5q-3 54 -40 91t-88 37zM678.5 729q24.5 0 42.5 -18.5t18 -45t-18 -45.5t-42.5 -19t-42 19t-17.5 45.5t17.5 45t42 18.5zM262.5 337q-24.5 0 -42 19t-17.5 45.5t17.5 45t42 18.5t42.5 -18.5t18 -45
t-18 -45.5t-42.5 -19zM678.5 73q-24.5 0 -42 19t-17.5 45.5t17.5 45t42 18.5t42.5 -18.5t18 -45t-18 -45.5t-42.5 -19z" />
    <glyph glyph-name="steam" unicode="&#xe780;" 
d="M511 896q-128 0 -242 -63t-186 -171.5t-82 -236.5l274 -113q16 10 39.5 17.5t42.5 7.5h8l122 176v3q0 80 56.5 136.5t136.5 56.5t136.5 -56.5t56.5 -136.5t-56.5 -136.5t-136.5 -56.5h-4l-174 -125v-3v-3q0 -60 -42.5 -102.5t-102.5 -42.5q-52 0 -92 33t-50 83l-196 81
q46 -163 182 -267.5t310 -104.5q104 0 199 40.5t163.5 109t109 163.5t40.5 199t-40.5 199t-109 163.5t-163.5 109t-199 40.5v0zM322 119l-63 26q18 -37 56 -53q19 -8 40 -8q45 0 76.5 32t31.5 77q0 29 -19 58.5t-45 41.5q-20 8 -42 8q-20 0 -39 -7l65 -27q21 -8 35.5 -30
t14.5 -44q0 -33 -23.5 -56.5t-56.5 -23.5q-16 0 -31 6v0zM809 516q0 53 -38 91t-91 38t-91 -38t-38 -91t38 -91t91 -38t91 38t38 91zM584 516q0 40 28 68.5t68 28.5t68.5 -28.5t28.5 -68.5t-28.5 -68t-68.5 -28t-68 28t-28 68z" />
    <glyph glyph-name="origin" unicode="&#xe609;" 
d="M552 5q-28 -3 -30 -3q-98 1 -170 35q-52 25 -94 61q-62 54 -96 130q-27 58 -31 107q-3 46 -4 62q-1 38 15 93q25 89 96 184q27 36 54 65q65 69 164 133q19 12 36 21q6 3 14 3q7 0 9 -4t-2 -10q-31 -47 -40 -107l-1 -3h34q95 0 179 -41q67 -33 118 -92q50 -57 74 -130
q18 -53 18 -96q0 -3 1 -9t1 -9q2 -85 -28 -149q-25 -54 -62 -117q-36 -60 -122 -140q-56 -52 -148 -105q-19 -12 -26 -4q-3 3 -3 6t1.5 5.5t4.5 6t3 5.5q24 38 35 102v0zM511 536q-59 1 -102.5 -41.5t-45.5 -99.5q-3 -66 41.5 -111.5t104.5 -46.5q63 0 106.5 43t46.5 101
q2 64 -44 110.5t-107 44.5z" />
    <glyph glyph-name="bianji" unicode="&#xe603;" 
d="M899 -32h-800v800h400v-56h-344v-687h687v343h57v-400zM897 806l40 -40l-418 -418l-40 40z" />
    <glyph glyph-name="cuo" unicode="&#xe605;" 
d="M844 86l-298 298l298 298l-35 36l-298 -298l-298 298l-35 -36l298 -298l-298 -298l35 -35l298 298l298 -298z" />
    <glyph glyph-name="dui" unicode="&#xe606;" 
d="M425 92l-361 361l28 29l333 -333l505 506l29 -29z" />
    <glyph glyph-name="lishijilu" unicode="&#xe607;" 
d="M512 -64q-91 0 -174 35.5t-143 95.5t-95.5 142.5t-35.5 173.5t35.5 174t95.5 143t143 95.5t174 35.5t173.5 -35.5t142.5 -95.5t95.5 -143t35.5 -174t-35.5 -173.5t-95.5 -142.5t-142.5 -95.5t-173.5 -35.5zM511.5 771q-105.5 0 -194.5 -52t-141 -141t-52 -194.5t52 -195
t141 -141t194.5 -52t195 51.5t141.5 141.5t52 195t-52 194.5t-141.5 141t-195 52zM738 354h-256v340h59v-281h197v-59z" />
    <glyph glyph-name="mimakejian" unicode="&#xe60a;" 
d="M961 250h-46q0 93 -54 172.5t-146.5 125.5t-201.5 46t-202 -46t-147 -125.5t-54 -172.5h-46q0 106 60 195.5t163.5 142t225 52.5t225 -52.5t163.5 -142t60 -195.5zM512.5 147q-77.5 0 -132.5 55t-55 133t55 133t132.5 55t133 -55t55.5 -133t-55.5 -133t-133 -55z
M512.5 477q-58.5 0 -100.5 -41.5t-42 -100.5t42 -100.5t100.5 -41.5t100.5 41.5t42 100.5t-42 100.5t-100.5 41.5z" />
    <glyph glyph-name="shoucang" unicode="&#xe60b;" 
d="M512 711l84 -170q5 -10 17 -18.5t23 -10.5l188 -27l-136 -133q-20 -19 -15 -47l32 -187l-168 88q-12 7 -25 7t-25 -7l-168 -88l32 187q5 28 -15 47l-136 133l188 27q28 4 40 29zM512 832l-132 -267l-294 -43l213 -208l-50 -293l263 138l264 -138l-51 293l213 208l-294 43
z" />
    <glyph glyph-name="shouye" unicode="&#xe60c;" 
d="M72 333l-39 42l479 442l477 -442l-39 -42l-438 406zM866 566h-57v115h-133v57h190v-172zM866 -53h-283v235h-139v-235h-288v396h58v-338h172v235h255v-235h168v338h57v-396z" />
    <glyph glyph-name="sousuo" unicode="&#xe60d;" 
d="M930 6l-273 273q74 88 74 202q0 131 -92.5 224t-223.5 93t-224 -93t-93 -223.5t93 -223.5t224 -93q114 0 202 74l273 -273zM414.5 222q-107.5 0 -183.5 76t-76 183.5t76 184t183.5 76.5t184 -76.5t76.5 -184t-76.5 -183.5t-184 -76z" />
    <glyph glyph-name="tianjia" unicode="&#xe60e;" 
d="M928 406h-392v391h-46v-391h-392v-46h392v-392h46v392h392v46z" />
    <glyph glyph-name="youxifenlei" unicode="&#xe60f;" 
d="M157 270h237v-237h-237v237zM98 329v-355h355v355h-355zM630 270h237v-237h-237v237zM571 329v-355h355v355h-355zM157 732h237v-236h-237v236zM98 792v-355h355v355h-355zM630 732h237v-236h-237v236zM571 792v-355h355v355h-355z" />
    <glyph glyph-name="zhixiangjiantou" unicode="&#xe610;" 
d="M512 135l-448 448l50 49l398 -397l398 397l49 -49z" />
    <glyph glyph-name="tuichuquanping" unicode="&#xe611;" 
d="M306 155v-166q0 -9 6 -15t14 -6h62q9 0 15 6t6 15v269q0 9 -6 15t-15 6h-269q-9 0 -15 -6t-6 -15v-62q0 -8 6 -14t15 -6h166q8 -1 14.5 -7t6.5 -14zM741 175h166q9 0 15 6.5t6 14.5v62q0 9 -6 15t-15 6h-269q-9 0 -15 -6t-6 -15v-269q0 -9 6 -15t15 -6h62q8 0 14 6t6 15
v166q0 8 6.5 14t14.5 6zM720 611v166q0 9 -6 15t-14 6h-62q-9 0 -15 -6t-6 -15v-270q0 -8 6 -14t15 -6h269q9 0 15 6t6 14v63q0 8 -6 14t-15 6h-166q-8 0 -14.5 6t-6.5 15zM285 590h-166q-9 0 -15 -6t-6 -14v-62q0 -9 6 -15t15 -6h269q9 0 15 6t6 15v269q0 9 -6 15t-15 6
h-62q-8 0 -14 -6t-6 -15v-166q0 -9 -6.5 -15t-14.5 -6z" />
    <glyph glyph-name="zimu" unicode="&#xe612;" 
d="M189 291q-19 45 -19 96q0 56 21 97t61 63q39 21 86 21q53 0 89.5 -27t51.5 -76l-47 -11q-12 39 -35.5 56.5t-59.5 17.5q-41 0 -69 -20q-27 -19 -38 -53q-12 -33 -12 -68q0 -45 14 -79q13 -34 41 -51t60 -17q40 0 67.5 23t37.5 68l47 -12q-15 -58 -53.5 -88.5t-94.5 -30.5
q-58 0 -93 23q-37 24 -55 68zM603 224q36 -24 94 -24q55 0 94 30.5t54 88.5l-48 12q-9 -45 -36.5 -68t-67.5 -23q-33 0 -61 17t-41 51t-13 79q0 36 11 69t39 52.5t69 19.5q35 0 59 -17.5t36 -56.5l46 11q-14 49 -50.5 76.5t-89.5 27.5q-48 0 -87 -21.5t-60.5 -63
t-21.5 -97.5q0 -51 19 -95q19 -45 55 -68zM960 686v-598h-896v598h896zM911 636h-797v-498h797v498z" />
    <glyph glyph-name="juchangmoshi" unicode="&#xe613;" 
d="M939 87h-855q-8 0 -14 5.5t-6 14.5v557q0 8 6 14t14 6h855q9 0 14.5 -6t5.5 -14v-557q0 -9 -5.5 -14.5t-14.5 -5.5zM184 186h656q8 0 14 6t6 14v358q0 8 -6 14t-14 6h-656q-9 0 -14.5 -6t-5.5 -14v-358q0 -8 5.5 -14t14.5 -6z" />
    <glyph glyph-name="quanping" unicode="&#xe614;" 
d="M825 674v-166q0 -9 6 -15t15 -6h62q8 0 14.5 6t6.5 15v269q0 9 -6.5 15t-14.5 6h-270q-9 0 -15 -6t-6 -15v-62q0 -9 6 -15t15 -6h166q9 0 15 -6t6 -14zM804 72h-166q-9 0 -15 -6t-6 -15v-62q0 -9 6 -15t15 -6h270q8 0 14.5 6t6.5 15v269q0 9 -6.5 15t-14.5 6h-62
q-9 0 -15 -6t-6 -15v-166q0 -8 -6 -14t-15 -6zM223 694h166q9 0 15 6t6 15v62q0 9 -6 15t-15 6h-270q-8 0 -14.5 -6t-6.5 -15v-269q0 -9 6.5 -15t14.5 -6h63q8 0 14 6t6 15v166q0 8 6 14t15 6zM202 92v166q0 9 -6 15t-15 6h-62q-9 0 -15 -6t-6 -15v-269q0 -9 6 -15t15 -6
h270q9 0 15 6t6 15v62q0 9 -6 15t-15 6h-166q-9 0 -15 6t-6 14z" />
    <glyph glyph-name="jingyin" unicode="&#xe615;" 
d="M150 702l29 29l732 -732l-29 -28zM802 286v168v-168zM761 -27v61l-326 326v-193l317 -199q4 -1 6 0zM761 370v386q0 7 -6 10.5t-11 -0.5l-309 -192v-42l326 -325v163v0zM150 563v-386q0 -4 3.5 -7.5t7.5 -3.5h223q4 0 7.5 3.5t3.5 7.5v219q0 4 -4 8l-167 166q-3 4 -7 4
h-56q-4 0 -7.5 -3.5t-3.5 -7.5zM802 454v-168q33 36 33 84t-33 84z" />
    <glyph glyph-name="dayinliang" unicode="&#xe617;" 
d="M368 577l307 192v-768l-307 192v384zM99 577h230v-384h-230v384zM713 306v158v-158zM713 651v41v-41zM713 78v40v-40zM713 541v43v-43zM713 185v44v-44zM713 464v-158q31 33 31 78.5t-31 79.5zM713 692v-40q85 -28 138.5 -101.5t53.5 -165.5t-53.5 -165.5t-138.5 -101.5
v-40q101 28 166 113t65 193.5t-65 194t-166 113.5zM844 385q0 66 -36 120t-95 79v-43q42 -23 67 -64.5t25 -91.5t-25 -91.5t-67 -64.5v-44q59 25 95 79.5t36 120.5z" />
    <glyph glyph-name="xiaoyinliang" unicode="&#xe618;" 
d="M367 576l307 192v-768l-307 192v384zM98 576h230v-384h-230v384zM712 305v158v-158zM712 651v40v-40zM712 77v41v-41zM712 540v44v-44zM712 185v43v-43zM712 463v-158q31 34 31 79t-31 79zM712 691v-40q85 -28 138.5 -101t53.5 -165.5t-53.5 -166t-138.5 -100.5v-41
q101 28 165.5 113.5t64.5 194t-64.5 193.5t-165.5 113zM843 384q0 66 -36 120t-95 80v-44q42 -23 67 -64.5t25 -91.5t-25 -91.5t-67 -64.5v-43q59 25 95 79t36 120z" />
    <glyph glyph-name="huifang" unicode="&#xe619;" 
d="M953 328l-37 38q-5 5 -12.5 5t-12.5 -5l-40 -40q15 93 -12.5 183.5t-95.5 158.5q-73 75 -174 103t-203 3.5t-178 -95.5q-80 -76 -109.5 -179.5t-3 -207.5t104.5 -182q74 -74 173 -101.5t198.5 -4.5t175.5 93q6 5 6 13t-5 13l-38 38q-11 11 -24 0q-90 -82 -213.5 -78.5
t-210.5 89.5q-66 67 -84.5 157t16.5 177.5t116 141.5q77 52 172 51t171 -53q80 -55 113.5 -140t16.5 -174l-34 34q-5 5 -12.5 5t-12.5 -5l-38 -38q-5 -5 -5 -12t5 -12l64 -63l64 -65l3 -3q6 -5 13 -5t12 5l131 131q5 5 5 12t-5 12z" />
    <glyph glyph-name="bofang" unicode="&#xe61a;" 
d="M844 400q8 -6 8 -16t-8 -16l-345 -215l-342 -214q-9 -5 -18.5 0t-9.5 16v858q0 11 9.5 16.5t18.5 -0.5l342 -214z" />
    <glyph glyph-name="zanting" unicode="&#xe61b;" 
d="M369 -64h-191v0v861v1h191v-1v-861v0zM848 -64h-191h-1v861q0 1 1 1h191v-1v-861v0z" />
    <glyph glyph-name="tianjiadaozhuanji" unicode="&#xe61f;" 
d="M742 412q110 0 187 -80v104h-831v-104h457q77 80 187 80zM98 73v-104h459v2q-41 42 -61 102h-398v0zM98 798h831v-103h-831v103zM742 360q-86 0 -147 -60.5t-61 -146t61 -146.5t147 -61t147 61t61 146.5t-61 146t-147 60.5zM884 118h-106v-107h-71v107h-107v71h107v106
h71v-106h106v-71z" />
    <glyph glyph-name="wanchengbianji" unicode="&#xe620;" 
d="M889 1h-791v785h395v-52h-343v-680h687v340h52v-393zM493 265l-237 236l36 37l201 -199l398 394l37 -37z" />
    <glyph glyph-name="liulanpindao1" unicode="&#xe621;" 
d="M395 738v-237h-237v237h237zM454 797h-356v-356h356v356v0zM395 263v-237h-237v237h237zM454 323h-356v-356h356v356v0zM573 738h355v-60h-355v60zM573 560h355v-59h-355v59zM573 262h355v-60h-355v60zM573 84h355v-59h-355v59z" />
    <glyph glyph-name="tongzhiwuxiaoxi" unicode="&#xe61c;" 
d="M190 668v-559h644v559h-644zM755 625l-243 -208l-243 208h486zM233 152v448l279 -240l279 240v-448h-558z" />
    <glyph glyph-name="tongzhiyouxiaoxi" unicode="&#xe61d;" 
d="M960 539q0 -81 -57 -138t-138 -57t-138 57t-57 138t57 138t138 57t138 -57t57 -138zM701 312v-224h-559v447l279 -239l142 121q-12 19 -19 40l-123 -105l-243 209h352q2 21 8 43h-440v-560h646v260q-22 1 -43 8z" />
    <glyph glyph-name="xingbiebianji" unicode="&#xe622;" 
d="M837 734h52v-733h-792v785h792v-52h-739v-680h687v680z" />
  </font>
</defs>
</svg>
